<svg xmlns="http://www.w3.org/2000/svg" viewBox="0 0 1024 1024">
  <!-- Background gradient -->
  <defs>
    <linearGradient id="bgGradient" x1="0%" y1="0%" x2="100%" y2="100%">
      <stop offset="0%" style="stop-color:#FF6B6B"/>
      <stop offset="100%" style="stop-color:#FF4949"/>
    </linearGradient>
    
    <!-- Timer gradient -->
    <linearGradient id="timerGradient" x1="0%" y1="0%" x2="0%" y2="100%">
      <stop offset="0%" style="stop-color:#FFFFFF"/>
      <stop offset="100%" style="stop-color:#F0F0F0"/>
    </linearGradient>
  </defs>
  
  <!-- Background square with rounded corners -->
  <rect x="0" y="0" width="1024" height="1024" rx="224" ry="224" fill="url(#bgGradient)"/>
  
  <!-- Timer body -->
  <g transform="translate(512, 512) scale(0.8)">
    <!-- Main timer circle -->
    <circle cx="0" cy="0" r="400" fill="url(#timerGradient)" stroke="#E0E0E0" stroke-width="24"/>
    
    <!-- Timer marks -->
    <g stroke="#FF6B6B" stroke-width="24" stroke-linecap="round">
      <!-- 12 o'clock mark -->
      <line x1="0" y1="-320" x2="0" y2="-280"/>
      <!-- 3 o'clock mark -->
      <line x1="320" y1="0" x2="280" y2="0"/>
      <!-- 6 o'clock mark -->
      <line x1="0" y1="320" x2="0" y2="280"/>
      <!-- 9 o'clock mark -->
      <line x1="-320" y1="0" x2="-280" y2="0"/>
    </g>
    
    <!-- Timer hands -->
    <g>
      <!-- Minute hand -->
      <line x1="0" y1="0" x2="0" y2="-240" 
            stroke="#FF4949" 
            stroke-width="24" 
            stroke-linecap="round"
            transform="rotate(45)"/>
      
      <!-- Hour hand -->
      <line x1="0" y1="0" x2="0" y2="-160" 
            stroke="#FF4949" 
            stroke-width="32" 
            stroke-linecap="round"
            transform="rotate(-45)"/>
      
      <!-- Center dot -->
      <circle cx="0" cy="0" r="24" fill="#FF4949"/>
    </g>
    
    <!-- Tomato leaf -->
    <path d="M0,-420 C-20,-440 -40,-430 -30,-410 C-20,-390 0,-400 0,-420"
          fill="#4CAF50" transform="translate(-10, -20)"/>
  </g>
</svg>
